<?xml version="1.0" standalone="no"?>
<!DOCTYPE svg PUBLIC "-//W3C//DTD SVG 20010904//EN"
 "http://www.w3.org/TR/2001/REC-SVG-20010904/DTD/svg10.dtd">
<svg version="1.0" xmlns="http://www.w3.org/2000/svg"
 width="225.000000pt" height="225.000000pt" viewBox="0 0 225.000000 225.000000"
 preserveAspectRatio="xMidYMid meet">

<g transform="translate(0.000000,225.000000) scale(0.100000,-0.100000)"
fill="#000000" stroke="none">
<path d="M1035 2244 c-201 -20 -386 -87 -550 -197 -77 -52 -230 -205 -282
-282 -135 -202 -195 -397 -196 -640 0 -169 23 -290 79 -422 73 -169 143 -272
270 -393 376 -358 943 -409 1386 -125 107 69 280 249 345 359 112 189 156 354
156 581 0 327 -110 586 -345 811 -157 150 -337 245 -548 288 -79 16 -248 27
-315 20z m200 -24 c270 -31 506 -148 690 -342 415 -437 400 -1123 -33 -1540
-188 -181 -401 -281 -658 -309 -396 -42 -797 147 -1023 485 -265 393 -244 919
50 1291 184 232 463 387 749 415 111 11 127 11 225 0z"/>
<path d="M1090 2100 c-21 -57 -20 -96 1 -57 13 22 69 24 69 2 0 -8 6 -15 14
-15 12 0 9 13 -10 62 -13 34 -24 63 -24 65 0 2 -6 3 -14 3 -7 0 -24 -27 -36
-60z m50 -7 c0 -7 -7 -13 -16 -13 -11 0 -14 5 -10 16 3 9 6 21 6 27 0 16 20
-14 20 -30z"/>
<path d="M949 2143 c-12 -3 -16 -14 -14 -41 4 -80 21 -95 79 -72 22 8 26 16
26 49 0 59 -30 81 -91 64z m59 -25 c20 -20 15 -66 -9 -73 -29 -9 -45 15 -22
33 16 11 16 12 0 12 -10 0 -17 8 -17 20 0 23 29 27 48 8z"/>
<path d="M1208 2090 c-2 -43 1 -60 10 -60 8 0 12 19 12 60 0 78 -17 78 -22 0z"/>
<path d="M1313 2073 c-6 -32 -9 -60 -8 -62 8 -8 25 12 25 30 0 16 6 20 28 17
23 -3 27 -7 24 -30 -5 -45 15 -32 27 16 6 25 11 52 11 60 0 25 -17 19 -24 -8
-5 -19 -11 -22 -32 -18 -21 4 -24 9 -20 28 4 16 2 24 -7 24 -9 0 -18 -21 -24
-57z"/>
<path d="M772 2098 c-29 -15 -39 -55 -21 -87 29 -51 129 -30 113 23 -9 28 -9
29 -33 21 -25 -8 -28 -25 -5 -25 26 0 9 -25 -19 -28 -21 -3 -29 2 -37 23 -13
33 -13 31 6 49 10 10 24 14 40 10 14 -4 24 -2 24 5 0 6 -4 11 -9 11 -5 0 -15
2 -23 4 -7 3 -23 0 -36 -6z"/>
<path d="M1480 2082 c-39 -12 -54 -77 -24 -107 25 -25 75 -16 93 17 28 50 -15
107 -69 90z m45 -26 c28 -20 10 -70 -27 -74 -34 -4 -46 29 -24 63 19 29 25 30
51 11z"/>
<path d="M676 2051 c-4 -6 0 -23 9 -37 22 -35 13 -41 -23 -15 -28 19 -62 28
-62 16 0 -15 52 -105 60 -105 13 0 12 10 -5 40 -22 39 -18 43 22 15 37 -25 63
-32 63 -17 -1 4 -14 31 -29 61 -18 34 -31 50 -35 42z"/>
<path d="M1110 2010 c0 -5 7 -10 15 -10 8 0 15 5 15 10 0 6 -7 10 -15 10 -8 0
-15 -4 -15 -10z"/>
<path d="M1590 1998 c-42 -45 -6 -121 50 -103 28 9 25 29 -4 21 -34 -8 -53 16
-38 50 17 35 42 42 63 16 20 -25 29 -28 29 -9 0 20 -33 47 -58 47 -12 0 -30
-10 -42 -22z"/>
<path d="M550 1981 c0 -6 5 -11 10 -11 6 0 10 -4 10 -9 0 -5 -9 -7 -21 -4 -25
7 -67 -14 -74 -37 -8 -26 12 -69 38 -81 52 -24 105 32 79 84 -6 12 -12 31 -14
41 -3 20 -28 35 -28 17z m14 -63 c22 -30 20 -45 -6 -59 -19 -10 -25 -8 -45 15
-18 22 -21 31 -13 47 14 26 45 24 64 -3z"/>
<path d="M1007 1973 c-15 -2 -25 -7 -23 -11 2 -4 -17 -7 -43 -8 -28 0 -80 -15
-133 -36 -273 -112 -473 -357 -523 -643 -48 -275 31 -536 223 -737 130 -136
287 -221 466 -253 343 -59 676 84 866 374 146 222 179 492 91 748 -75 219
-260 416 -473 505 -127 54 -324 80 -451 61z m106 -433 c-6 -23 -40 -22 -46 1
-3 12 0 19 9 19 8 0 14 5 14 10 0 6 6 6 13 -2 8 -7 12 -19 10 -28z m-408 -181
c157 -5 235 -12 273 -24 62 -19 128 -74 152 -127 l17 -38 29 31 c62 66 161
106 294 119 85 9 192 0 257 -21 l31 -10 -25 -27 c-29 -31 -62 -99 -128 -262
-80 -198 -142 -306 -220 -386 -91 -92 -153 -118 -267 -112 -64 4 -90 11 -162
46 -47 23 -86 37 -86 32 0 -15 113 -80 169 -96 34 -11 80 -15 130 -13 140 7
270 92 393 258 101 136 125 159 182 176 61 18 152 21 121 3 -40 -22 -69 -55
-138 -158 -91 -137 -199 -242 -303 -297 -181 -95 -320 -93 -469 8 -50 34 -155
144 -155 162 0 9 44 -1 99 -23 155 -61 293 -13 408 144 54 73 99 160 165 321
73 176 75 159 -21 152 -138 -11 -238 -70 -289 -171 -19 -39 -20 -39 -27 -15
-18 58 -49 113 -84 148 -60 60 -109 72 -316 80 -153 6 -187 11 -225 29 -25 11
-52 27 -60 34 -18 15 -70 82 -70 90 0 3 24 -6 53 -20 49 -24 66 -26 272 -33z
m-210 -109 c50 -30 105 -40 281 -49 153 -7 174 -11 221 -34 59 -30 104 -81
128 -142 15 -40 15 -46 -1 -82 -16 -37 -17 -37 -24 -13 -19 68 -57 114 -120
145 -27 14 -67 19 -180 22 -213 7 -271 31 -347 150 -39 61 -41 72 -10 43 12
-12 36 -30 52 -40z m304 -200 c165 -5 169 -6 205 -34 44 -33 96 -102 96 -126
0 -9 -6 -24 -13 -34 -13 -17 -14 -16 -27 13 -14 35 -55 68 -101 81 -16 5 -87
12 -157 15 -70 4 -145 12 -167 18 -22 6 -44 10 -48 9 -5 -2 -6 1 -3 6 2 4 -8
16 -24 27 -24 16 -70 80 -70 97 0 2 32 -11 71 -31 70 -35 72 -35 238 -41z
m-216 -270 c-2 -101 -3 -110 -18 -110 -11 0 -15 12 -15 50 0 38 -4 50 -15 50
-20 0 -19 10 3 26 25 20 46 13 45 -16z m105 18 c7 -7 12 -27 12 -45 0 -26 4
-33 20 -33 11 0 20 -4 20 -10 0 -5 4 -10 9 -10 5 0 7 8 4 19 -3 13 -11 17 -24
14 -16 -5 -19 0 -19 36 l0 42 37 -3 c42 -3 59 -28 19 -28 -14 0 -26 -5 -26
-11 0 -5 4 -8 9 -5 5 4 16 3 25 0 22 -8 22 -80 0 -88 -28 -11 -54 -6 -61 9 -5
14 -7 14 -23 0 -26 -23 -65 -16 -65 12 0 12 -4 25 -8 29 -4 4 -7 20 -7 35 0
41 50 65 78 37z m186 -4 c9 -9 16 -32 16 -54 0 -60 -49 -93 -81 -54 -10 13
-10 17 2 25 10 6 10 9 2 9 -17 0 -17 62 -1 78 17 17 44 15 62 -4z"/>
<path d="M830 605 c7 -8 17 -15 22 -15 6 0 5 7 -2 15 -7 8 -17 15 -22 15 -6 0
-5 -7 2 -15z"/>
<path d="M652 760 c0 -14 2 -19 5 -12 2 6 2 18 0 25 -3 6 -5 1 -5 -13z"/>
<path d="M842 760 c0 -14 2 -19 5 -12 2 6 2 18 0 25 -3 6 -5 1 -5 -13z"/>
<path d="M470 1960 c0 -5 5 -10 10 -10 6 0 10 5 10 10 0 6 -4 10 -10 10 -5 0
-10 -4 -10 -10z"/>
<path d="M1460 1940 c0 -5 5 -10 10 -10 6 0 10 5 10 10 0 6 -4 10 -10 10 -5 0
-10 -4 -10 -10z"/>
<path d="M1767 1923 c-14 -25 -38 -114 -32 -123 7 -11 107 42 113 60 6 17 -18
11 -50 -11 -37 -27 -43 -21 -23 27 9 22 12 41 6 47 -5 5 -11 5 -14 0z"/>
<path d="M420 1878 c0 -8 7 -15 15 -15 18 0 15 19 -3 25 -7 2 -12 -3 -12 -10z"/>
<path d="M396 1863 c-3 -4 10 -24 30 -44 23 -24 34 -43 31 -53 -10 -25 -41
-19 -72 14 -15 16 -32 27 -37 24 -15 -9 53 -74 77 -74 25 0 55 29 55 52 0 9
-7 21 -15 28 -8 7 -15 19 -15 28 0 8 -3 12 -7 9 -3 -4 -14 0 -23 8 -9 8 -20
12 -24 8z"/>
<path d="M1831 1791 c-29 -24 -41 -42 -36 -50 5 -9 20 -1 51 30 42 41 53 59
37 59 -5 0 -28 -18 -52 -39z"/>
<path d="M1867 1750 c-28 -23 -43 -41 -37 -45 7 -4 22 2 34 14 33 31 37 26 20
-21 -8 -23 -11 -45 -6 -50 10 -10 104 61 96 74 -3 5 -21 -3 -40 -17 -39 -30
-40 -29 -18 25 24 59 7 65 -49 20z"/>
<path d="M281 1721 c-12 -16 -21 -34 -21 -40 0 -13 89 -75 97 -67 4 3 -2 15
-11 25 -23 26 -12 43 26 39 18 -2 33 2 35 10 3 8 -6 12 -26 12 -24 0 -31 4
-31 19 0 17 -18 31 -40 31 -5 0 -18 -13 -29 -29z m49 -15 c0 -21 -23 -36 -40
-26 -11 7 -11 11 -1 24 16 20 41 21 41 2z"/>
<path d="M1953 1639 c-50 -29 -75 -60 -35 -44 30 12 44 11 56 -8 11 -17 3 -28
-29 -40 -5 -3 -6 -8 -2 -13 10 -11 99 37 105 56 3 9 -1 11 -14 6 -31 -12 -35
-12 -47 7 -10 15 -8 21 7 32 39 30 8 32 -41 4z"/>
<path d="M211 1606 c-24 -39 -29 -72 -6 -42 15 20 16 20 60 -2 52 -25 55 -26
55 -12 0 6 -20 20 -44 32 -38 18 -43 24 -35 40 18 33 -8 19 -30 -16z"/>
<path d="M131 1153 c-10 -21 -9 -29 3 -41 8 -8 19 -11 25 -8 15 10 14 51 -2
65 -11 8 -17 5 -26 -16z"/>
<path d="M2091 1161 c-15 -27 -14 -48 3 -54 15 -6 36 11 36 28 0 5 -7 18 -15
28 -13 18 -14 18 -24 -2z"/>
<path d="M187 1160 c-13 -38 -14 -60 -4 -60 7 0 3 -7 -7 -15 -17 -13 -18 -15
-3 -15 9 0 17 5 17 10 0 6 6 10 13 10 8 0 19 12 26 28 l13 27 -27 -25 c-23
-21 -26 -22 -18 -5 6 11 7 29 3 40 -6 16 -9 17 -13 5z"/>
<path d="M2052 1135 c4 -36 4 -37 -10 -17 -20 30 -34 28 -20 -3 6 -14 17 -25
25 -25 7 0 13 -4 13 -10 0 -5 8 -10 17 -10 15 0 14 2 -3 15 -10 8 -14 15 -8
15 13 0 6 58 -8 66 -7 4 -9 -7 -6 -31z"/>
<path d="M96 1152 c-4 -7 -4 -22 -1 -35 6 -21 5 -21 -14 3 -22 27 -28 21 -11
-11 12 -21 19 -23 37 -11 8 5 10 17 5 37 -5 19 -11 25 -16 17z"/>
<path d="M2138 1130 c-3 -17 0 -30 6 -30 6 0 2 -7 -8 -15 -12 -9 -15 -15 -7
-15 17 0 61 46 61 63 0 7 -9 1 -20 -13 l-21 -25 7 26 c3 15 1 30 -4 33 -5 3
-12 -8 -14 -24z"/>
<path d="M105 1080 c-4 -6 3 -10 14 -10 25 0 27 6 6 13 -8 4 -17 2 -20 -3z"/>
<path d="M1855 558 c-3 -9 -2 -25 4 -37 15 -27 15 -27 -23 -23 -18 2 -37 -1
-40 -7 -5 -7 3 -11 21 -11 16 0 45 -8 65 -19 44 -22 56 -16 28 14 -11 11 -26
39 -34 60 -10 30 -16 36 -21 23z"/>
<path d="M380 470 c-24 -47 -27 -62 -17 -66 19 -7 130 43 122 56 -4 6 -21 2
-47 -11 -22 -11 -42 -18 -45 -15 -3 3 4 21 16 41 23 40 26 55 11 55 -5 0 -23
-27 -40 -60z"/>
<path d="M1742 439 c-32 -29 -39 -55 -8 -30 12 10 20 4 47 -29 32 -39 49 -50
49 -30 0 5 -14 25 -31 45 -24 27 -29 39 -20 48 13 13 15 27 4 27 -5 0 -23 -14
-41 -31z"/>
<path d="M471 381 c-23 -27 -37 -52 -32 -55 9 -6 91 80 91 95 0 20 -21 6 -59
-40z"/>
<path d="M526 340 c-40 -55 -32 -79 9 -28 l26 33 -3 -54 c-2 -30 1 -55 7 -57
13 -4 80 94 71 103 -4 4 -18 -6 -31 -22 l-24 -30 -1 53 c0 28 -4 52 -9 52 -5
0 -25 -22 -45 -50z"/>
<path d="M1675 380 c-8 -12 44 -91 64 -98 19 -6 12 11 -23 61 -21 30 -37 44
-41 37z"/>
<path d="M1579 321 c-20 -16 -22 -23 -13 -38 9 -14 22 -17 54 -15 35 2 41 0
38 -15 -2 -12 -13 -18 -33 -18 -35 -1 -41 -18 -8 -23 33 -5 63 15 63 43 0 31
-25 45 -62 35 -15 -5 -30 -5 -33 0 -7 11 14 25 37 25 25 0 27 19 2 23 -11 2
-32 -6 -45 -17z"/>
<path d="M653 269 c-15 -30 -29 -57 -31 -61 -2 -5 3 -8 11 -8 9 0 19 9 22 20
7 23 28 26 44 6 10 -11 10 -20 1 -36 -13 -24 -8 -36 10 -25 18 11 60 104 50
110 -5 3 -14 -4 -20 -15 -13 -24 -20 -25 -45 -6 -17 12 -17 16 -6 30 10 12 11
20 3 28 -7 7 -18 -5 -39 -43z"/>
<path d="M1460 267 c-14 -6 -27 -12 -29 -14 -2 -1 6 -29 19 -63 22 -60 47 -73
35 -19 -8 33 4 37 40 13 13 -9 32 -14 42 -12 14 3 12 7 -14 22 -26 16 -29 22
-20 37 8 13 7 21 -2 33 -15 18 -36 19 -71 3z m50 -22 c0 -8 -9 -19 -20 -25
-16 -9 -22 -8 -27 6 -3 9 0 20 8 25 21 13 39 11 39 -6z"/>
<path d="M829 194 c-16 -69 -1 -90 63 -85 16 1 56 96 45 108 -11 10 -25 -8
-31 -41 -9 -45 -27 -60 -51 -42 -17 12 -17 16 -2 59 13 38 13 46 2 51 -10 3
-17 -11 -26 -50z"/>
<path d="M1343 229 c-37 -11 -37 -10 -22 -80 l11 -51 42 6 c22 4 46 12 51 18
7 7 -2 9 -32 4 -38 -5 -43 -4 -43 13 0 13 9 21 30 26 39 9 29 26 -10 18 -42
-8 -41 23 0 32 17 4 30 11 30 16 0 11 -14 10 -57 -2z"/>
<path d="M976 188 c-14 -66 -16 -97 -7 -102 5 -4 14 13 19 36 l9 43 17 -42
c26 -61 44 -62 51 -5 4 26 9 55 12 66 3 12 1 17 -8 14 -8 -3 -17 -22 -20 -44
l-5 -39 -22 48 c-23 51 -39 60 -46 25z"/>
<path d="M1244 170 c-9 -55 -18 -57 -39 -10 -10 22 -24 40 -32 40 -8 0 -13 -3
-11 -7 25 -57 61 -113 72 -113 8 0 18 22 25 57 13 69 14 73 1 73 -5 0 -13 -18
-16 -40z"/>
<path d="M1110 136 c0 -52 3 -66 15 -66 12 0 15 12 13 62 -2 38 -8 63 -15 66
-10 3 -13 -14 -13 -62z"/>
</g>
</svg>
